<svg id="Ebene_1" data-name="Ebene 1" xmlns="http://www.w3.org/2000/svg" viewBox="0 0 62.3 86.35"><title>knothArt_logo_small</title><rect x="14.82" y="41.69" width="25.24" height="3.93"/><path d="M8.21,80.43V4q0-1.62-1.89-1.62H0V0H27.44V2.42H21.12q-1.89,0-1.89,1.62V80.43a1.67,1.67,0,0,0,1.89,1.89h6.32v2.42H0V82.32H6.32A1.67,1.67,0,0,0,8.21,80.43Z"/><path d="M42.61,0V2.42H40.85A2.33,2.33,0,0,0,39,3.35L24.47,20.42l-5.24.13L34.57,2.42H31.32V0Z"/><path d="M62.3,71.12q0,7-2.71,11.14t-7,4.09Q42,86.35,38.75,65.46l-2.89-18q-2.14-12.69-5.92-17.68t-10.71-5v-4.3l5.42-.39q9.69.19,14.61,8.2t7.05,21.48l2.9,18q1.89,12.12,6,12.11c1.43,0,2.54-.81,3.34-2.44a13.31,13.31,0,0,0,1.19-5.86,50.39,50.39,0,0,0-.37-6.35l2.39-.58A38.72,38.72,0,0,1,62.3,71.12Z"/></svg>