<svg id="Ebene_1" data-name="Ebene 1" xmlns="http://www.w3.org/2000/svg" viewBox="0 0 100 86.35"><title>knothArt_logo</title><path d="M8.21,80.43V4q0-1.62-1.89-1.62H0V0H27.44V2.42H21.12q-1.89,0-1.89,1.62V80.43a1.67,1.67,0,0,0,1.89,1.89h6.32v2.42H0V82.32H6.32A1.67,1.67,0,0,0,8.21,80.43Z"/><path d="M42.61,0V2.42H40.85A2.33,2.33,0,0,0,39,3.35L24.47,20.42l-5.24.13L34.57,2.42H31.32V0Z"/><path d="M62.3,71.12q0,7-2.71,11.14t-7,4.09Q42,86.35,38.75,65.46l-2.89-18q-2.14-12.69-5.92-17.68t-10.71-5v-4.3l5.42-.39q9.69.19,14.61,8.2t7.05,21.48l2.9,18q1.89,12.12,6,12.11c1.43,0,2.54-.81,3.34-2.44a13.31,13.31,0,0,0,1.19-5.86,50.39,50.39,0,0,0-.37-6.35l2.39-.58A38.72,38.72,0,0,1,62.3,71.12Z"/><path d="M56.18,15.08v8.49q0,.39.45.39h1.53v.59H52.32V24h1.07q.45,0,.45-.39V14.66a3.57,3.57,0,0,0-.72-2.45,2.5,2.5,0,0,0-1.93-.79,3.2,3.2,0,0,0-2.79,2,12,12,0,0,0-1.1,5.72v4.38a.4.4,0,0,0,.45.45h1.07v.59H43V24h1.52q.45,0,.45-.39v-12a.4.4,0,0,0-.45-.45H43v-.59h1.58a13,13,0,0,0,2.73-.19v4.41q1.1-4.61,4.86-4.6A3.8,3.8,0,0,1,55,11.37,5.18,5.18,0,0,1,56.18,15.08Z"/><path d="M62.4,23a7.69,7.69,0,0,1-1.81-5.41,7.72,7.72,0,0,1,1.81-5.42,6.69,6.69,0,0,1,9.48,0,7.68,7.68,0,0,1,1.83,5.42A7.66,7.66,0,0,1,71.88,23a6.66,6.66,0,0,1-9.48,0Zm1.82-10.29a8.85,8.85,0,0,0-1.17,4.88,8.84,8.84,0,0,0,1.17,4.87,3.4,3.4,0,0,0,2.91,1.8,3.46,3.46,0,0,0,2.94-1.8,8.75,8.75,0,0,0,1.18-4.87,8.77,8.77,0,0,0-1.18-4.88,3.46,3.46,0,0,0-2.94-1.8A3.4,3.4,0,0,0,64.22,12.67Z"/><path d="M79.48,7.11H80v3.43h3.24v.59H80v11c0,1.16.32,1.75,1,1.75a1,1,0,0,0,.8-.43,1.53,1.53,0,0,0,.34-1,5.73,5.73,0,0,0-.1-1l.61-.09a4,4,0,0,1,.13,1.07A2.45,2.45,0,0,1,82,24.25a2.51,2.51,0,0,1-1.83.69A2.22,2.22,0,0,1,78.35,24a4.45,4.45,0,0,1-.71-2.77V11.58a.4.4,0,0,0-.46-.45H75.66v-.59h1.59C77.94,10.54,78.68,9.4,79.48,7.11Z"/><path d="M98,15.08v8.49c0,.26.15.39.46.39H100v.59H94.17V24h1.07q.45,0,.45-.39V14.66A3.52,3.52,0,0,0,95,12.21,2.5,2.5,0,0,0,93,11.42a3.22,3.22,0,0,0-2.79,2,12.09,12.09,0,0,0-1.1,5.72v4.38a.4.4,0,0,0,.46.45h1.07v.59H84.83V24h1.52c.31,0,.46-.13.46-.39v-19a.4.4,0,0,0-.46-.45H84.83V3.54h1.59a12.9,12.9,0,0,0,2.72-.19V14.76q1.11-4.61,4.86-4.6a3.81,3.81,0,0,1,2.86,1.21A5.22,5.22,0,0,1,98,15.08Z"/><path d="M65.31,42.15a12.6,12.6,0,0,0-2.74.58,5.46,5.46,0,0,0-1.19.57,1.58,1.58,0,0,0-.66.81.83.83,0,0,0,0,.22.48.48,0,0,0,0,.12l.05.15a5,5,0,0,0,.24.58,4.16,4.16,0,0,0,.68,1,3.64,3.64,0,0,0,1.84,1,6.59,6.59,0,0,0,2.19.11,4.08,4.08,0,0,0,.59-.11l.29-.07.19,0a1.59,1.59,0,0,0,.59-.24,3.16,3.16,0,0,0,.93-1.07,9.58,9.58,0,0,0,.78-1.92c.11-.36.2-.74.28-1.13,0-.19.08-.38.11-.57l0-.27,0-.11v0h0v0a5.22,5.22,0,0,0-.06-.93,6.07,6.07,0,0,0-.21-1,5.13,5.13,0,0,0-2.36-3,10.87,10.87,0,0,0-4.46-1.31,16,16,0,0,0-2.59,0,23.53,23.53,0,0,0-2.61.32,41.64,41.64,0,0,0-5.31,1.39c-1.79.57-3.61,1.21-5.45,1.83a83.74,83.74,0,0,1-11.35,3.1,70.1,70.1,0,0,1-11.71,1.24,54.39,54.39,0,0,1-5.85-.11,45.2,45.2,0,0,1-5.79-1,.26.26,0,0,1,.06-.52c1.93-.08,3.84-.2,5.75-.39l.71-.07.71,0,1.43-.07c.95-.08,1.9-.13,2.84-.23q2.84-.25,5.63-.74c1.86-.32,3.71-.7,5.53-1.17s3.63-1,5.41-1.6,3.56-1.27,5.34-2,3.56-1.43,5.41-2.11a44.89,44.89,0,0,1,5.79-1.78,24.14,24.14,0,0,1,3.1-.5l.79-.07.79,0c.53,0,1.07,0,1.6,0a18,18,0,0,1,3.3.34,12.57,12.57,0,0,1,3.35,1.15,10.2,10.2,0,0,1,5,5.6,11.81,11.81,0,0,1,.5,1.83A10,10,0,0,1,75,41.87v.36l0,.25-.05.44c0,.29-.08.57-.13.85a14.22,14.22,0,0,1-.42,1.68,11.19,11.19,0,0,1-1.63,3.31,8.48,8.48,0,0,1-1.43,1.52,7.11,7.11,0,0,1-2,1.13,6.87,6.87,0,0,1-2.2.43h-.54l-.43-.08-.85-.2A9.29,9.29,0,0,1,62,50.17a6,6,0,0,1-2.27-2.93,5.25,5.25,0,0,1-.3-1.73,6,6,0,0,1,.06-.85l0-.21a2.12,2.12,0,0,1,0-.24,1.69,1.69,0,0,1,.13-.49,2.18,2.18,0,0,1,.54-.78,3.23,3.23,0,0,1,.7-.5,5.62,5.62,0,0,1,1.47-.52,12.88,12.88,0,0,1,3-.3.27.27,0,0,1,.26.27.26.26,0,0,1-.24.26Z"/><path d="M64,64.87l4.45-.49a1.36,1.36,0,0,1,1.13.73,2.73,2.73,0,0,1,.48,1.53q0,.81-.52,5.5a70.39,70.39,0,0,0-.53,7.39c0,1.8.16,2.7.49,2.7.91,0,2.18-1.2,3.79-3.43a49.87,49.87,0,0,0,4.81-8.6Q80.53,65,81.05,65c.35,0,.52.21.52.64q0,2.26-2.34,7.19Q72.86,86.35,68.49,86.35a7.54,7.54,0,0,1-4.77-1.29c-.38-.38-.56-2.72-.56-7A38.89,38.89,0,0,1,64.53,67c-3.12,0-5.31-1-6.54-3a6.33,6.33,0,0,1-1-3.48,7,7,0,0,1,.8-3.39,2.52,2.52,0,0,1,2.31-1.45,3.52,3.52,0,0,1,2.74,1.57,5.49,5.49,0,0,1,1.26,3.52A7.57,7.57,0,0,1,63,64.62,1.73,1.73,0,0,0,64,64.87Z"/><path d="M95.71,72.78Q89.32,86.35,84.92,86.35c-2.93,0-4.66-.35-5.17-1s-.76-3-.76-6.94.37-9.62,1.13-17q-4-.81-4.28-3.31c0-.86.56-1.29,1.69-1.29a6.61,6.61,0,0,1,3,.64q.74-5.81,1.7-11.79a5.52,5.52,0,0,1,1.53-2.91,3.61,3.61,0,0,1,2.51-1.37c.7,0,1,1.1,1,3.31q0,1.54-1.13,14.14A20.56,20.56,0,0,0,91,57.11a13.66,13.66,0,0,1,3.11-1.21c1,0,1.46.3,1.46.89s-1,1.28-3,2.22a30.27,30.27,0,0,1-6.63,2.14Q85,72.94,85,79c0,2.16.33,3.23,1,3.23q1.45-.08,3.88-3.39a48,48,0,0,0,4.81-8.6Q97,64.94,97.52,65c.35,0,.53.21.53.64Q98.05,67.85,95.71,72.78Z"/></svg>